<svg width="171" height="30" fill="none" xmlns="http://www.w3.org/2000/svg"><g clip-path="url(#clip0)" fill="#188182"><path d="M17.599 7.18h-.939V3.03c0-1.01-.807-1.833-1.798-1.833h-.573V.239h.573c1.51 0 2.737 1.252 2.737 2.791v4.15zm-13.259 0H3.4V3.03C3.4 1.491 4.628.24 6.137.24h.572v.957h-.572c-.99 0-1.798.823-1.798 1.833v4.15zm8.555-5.744H8.107a.71.71 0 01-.704-.718A.71.71 0 018.107 0h4.788c.39 0 .704.32.704.718a.712.712 0 01-.704.718zM4.373 28.325v.718c0 .529.42.957.939.957a.948.948 0 00.938-.957v-.718H4.373zm10.374 0v.718c0 .529.42.957.939.957a.948.948 0 00.939-.957v-.718h-1.878zm-7.015-7.116L1.669 27.39c.382.187.81.295 1.263.295h8.194l-3.394-6.477zM0 15.682v7.772l4.967-5.065L0 15.682z"/><path d="M18.068 6.264H2.93C1.312 6.264 0 7.602 0 9.25v3.434l1.183.16.852-.868a.763.763 0 011.091 0 .8.8 0 010 1.113l-.018.02 6.206.846 2.307-2.352a7.76 7.76 0 011.467-1.176 7.203 7.203 0 011.673-.766c.503-.155.963-.023 1.256.278.296.302.425.768.272 1.28a7.7 7.7 0 01-.75 1.707 7.892 7.892 0 01-1.153 1.496l-2.307 2.353.83 6.328.02-.019a.763.763 0 011.09 0 .8.8 0 010 1.113l-.851.869.342 2.619h4.56c1.62 0 2.932-1.338 2.932-2.99V9.251C21 7.6 19.688 6.264 18.068 6.264z"/></g><path d="M26.34 8.84h5.82V26h3.87V8.84h5.82V5.33H26.34v3.51zm27.037-.09c1.92 0 2.79 1.77 2.79 3.27 0 1.53-.87 3.21-2.91 3.21h-4.14V8.75h4.26zm1.53 9.75c3.69-.57 5.25-3.54 5.25-6.48 0-3.36-2.04-6.69-6.6-6.69h-8.28V26h3.84v-7.35h1.59l4.86 7.35h4.62l-5.28-7.5zM77.193 26h4.05l-7.74-20.67h-4.14L61.623 26h4.08l1.89-5.01h7.71l1.89 5.01zm-5.76-16.26l2.61 7.89h-5.16l2.55-7.89zm9.364-4.41l6.3 20.67h3.45l6.27-20.67h-3.99l-4.02 14.4-4.02-14.4h-3.99zM100.033 26h13.08v-3.42h-9.27v-5.07h7.86v-3.39h-7.86V8.75h8.97V5.33h-12.78V26zm17.168 0h11.82v-3.42h-7.98V5.33h-3.84V26zm15.176 0h11.82v-3.42h-7.98V5.33h-3.84V26zm17.169-10.29c0-3.75 2.91-6.84 6.66-6.84 3.69 0 6.66 3.09 6.66 6.84 0 3.78-2.97 6.81-6.66 6.81-3.75 0-6.66-3.03-6.66-6.81zm-3.81 0c0 5.82 4.59 10.59 10.47 10.59 5.88 0 10.5-4.77 10.5-10.59 0-5.85-4.62-10.62-10.5-10.62s-10.47 4.77-10.47 10.62z" fill="#188182"/><defs><clipPath id="clip0"><path fill="#fff" d="M0 0h21v30H0z"/></clipPath></defs></svg>