<svg width="950" height="569" fill="none" xmlns="http://www.w3.org/2000/svg"><path d="M851.5 540c28 43.2 79 28 101 15V0H.5C30.667.333 95.8 16.7 115 79.5 139 158 168 181 312.5 185s179.5 54 196 139 64.5 124.5 178 105.5 130 56.5 165 110.5z" fill="#00A8CC" fill-opacity=".2"/><path d="M851.894 316.264c28.029 25.301 79.083 16.399 101.106 8.785V0H0c30.198.195 95.4 9.78 114.62 46.561 24.025 45.976 53.056 59.446 197.708 61.789 144.652 2.343 179.688 31.626 196.206 81.409 16.517 49.782 64.567 72.916 178.187 61.788 113.619-11.128 130.136 33.091 165.173 64.717z" fill="#00A8CC" fill-opacity=".2"/></svg>