<svg width="950" height="569" viewBox="0 0 950 569" fill="none" xmlns="http://www.w3.org/2000/svg">
<path d="M851.5 540C879.5 583.2 930.5 568 952.5 555V0H0.5C30.6667 0.333333 95.8 16.7 115 79.5C139 158 168 181 312.5 185C457 189 492 239 508.5 324C525 409 573 448.5 686.5 429.5C800 410.5 816.5 486 851.5 540Z" fill="#00A8CC" fill-opacity="0.2"/>
<path d="M851.894 316.264C879.923 341.565 930.977 332.663 953 325.049V0H0C30.1984 0.195225 95.4001 9.78077 114.62 46.5611C138.645 92.5366 167.676 106.007 312.328 108.35C456.98 110.693 492.016 139.976 508.534 189.759C525.051 239.541 573.101 262.675 686.721 251.547C800.34 240.419 816.857 284.638 851.894 316.264Z" fill="#00A8CC" fill-opacity="0.2"/>
</svg>
